PathFileType	4	(X/Y/Z)	C:/Users/opensim2020/Desktop/walking_exp_matlab/subject02_walking07_straight_02.trc	
DataRate	CameraRate	NumFrames	NumMarkers	Units	OrigDataRate	OrigDataStartFrame	OrigNumFrames	
100.00	100.00	7	50	mm	100.00	1436	210	
Frame#	Time	LFHD			RFHD			LBHD			RBHD			C7			T10			CLAV			STRN			RBAK			LSHO			LUPA			LELB			LFRM			LWRA			LWRB			LFIN			RSHO			RUPA			RELB			RFRM			RWRA			RWRB			RFIN			LASI			RASI			LPSI			RPSI			LTHI			LKNE			LTIB			LANK			LHEE			LTOE			RTHI			RKNE			RTIB			RANK			RHEE			RTOE			*39			*40			*41			*42			*43			*44			*45			*46			*47			*48			*49			
		X1	Y1	Z1	X2	Y2	Z2	X3	Y3	Z3	X4	Y4	Z4	X5	Y5	Z5	X6	Y6	Z6	X7	Y7	Z7	X8	Y8	Z8	X9	Y9	Z9	X10	Y10	Z10	X11	Y11	Z11	X12	Y12	Z12	X13	Y13	Z13	X14	Y14	Z14	X15	Y15	Z15	X16	Y16	Z16	X17	Y17	Z17	X18	Y18	Z18	X19	Y19	Z19	X20	Y20	Z20	X21	Y21	Z21	X22	Y22	Z22	X23	Y23	Z23	X24	Y24	Z24	X25	Y25	Z25	X26	Y26	Z26	X27	Y27	Z27	X28	Y28	Z28	X29	Y29	Z29	X30	Y30	Z30	X31	Y31	Z31	X32	Y32	Z32	X33	Y33	Z33	X34	Y34	Z34	X35	Y35	Z35	X36	Y36	Z36	X37	Y37	Z37	X38	Y38	Z38	X39	Y39	Z39	X40	Y40	Z40	X41	Y41	Z41	X42	Y42	Z42	X43	Y43	Z43	X44	Y44	Z44	X45	Y45	Z45	X46	Y46	Z46	X47	Y47	Z47	X48	Y48	Z48	X49	Y49	Z49	X50	Y50	Z50	

106	1.050	-963.22290	-218.57176	1746.60657	-1105.17151	-208.89293	1726.25500	-945.00629	-87.95348	1673.83850	-1086.29163	-66.04989	1652.15967	-1019.00928	-29.41620	1528.12415	-1045.77917	14.49736	1251.87317	-1007.70813	-171.18471	1463.57568	-1024.58667	-228.04553	1293.97095	-1095.43762	21.07297	1355.72852	-837.80115	-98.70735	1494.95020	-767.18433	-77.48170	1290.90808	-766.07135	-64.70335	1150.78345	-754.56323	-58.67506	1020.41315	-791.98871	-91.94014	885.81274	-752.29083	-52.20674	897.25604	-754.17615	-55.95597	829.44446	-1204.88477	-111.46841	1506.40894	-1300.57739	-99.05214	1318.51831	-1327.17688	-125.42686	1175.71912	-1353.39941	-169.65448	1065.58728	-1344.11853	-235.85777	946.80859	-1375.20898	-189.48029	938.60663	-1382.83997	-235.68817	882.73163	-908.51379	-209.35733	991.03540	-1164.19482	-226.26361	985.45276	-1004.94385	-5.78094	1033.97913	-1120.08472	-9.45572	1038.24377	-842.96075	-186.88727	683.85071	-858.93488	-193.67383	496.43472	-881.68860	-61.21352	368.18198	-917.80841	42.41462	172.87892	-979.32898	70.15244	158.33354	-867.52759	-58.70224	67.13773	-1224.89026	-163.26671	673.41803	-1174.13818	-167.73947	464.41238	-1174.30115	-122.82877	280.13629	-1127.63843	-96.67499	90.97878	-1070.16443	-59.93579	38.60478	-1141.99756	-247.73929	36.49310	-1047.00879	-111.93407	1812.04749	-3360.40332	2845.19824	1034.06104																											 
107	1.060	-963.03271	-227.89264	1746.99341	-1105.03833	-218.75928	1726.84143	-945.16339	-97.04451	1674.35474	-1086.58203	-75.56268	1653.08484	-1019.95410	-38.15973	1529.06482	-1047.20422	5.75503	1252.86365	-1008.04871	-180.09978	1464.35437	-1025.42346	-236.66440	1294.74280	-1097.73975	12.14307	1357.13574	-838.67657	-106.43027	1495.25549	-768.06274	-81.96078	1291.42017	-767.38495	-66.60224	1151.92029	-755.95160	-57.89359	1021.60535	-792.84113	-89.46646	886.69757	-753.54077	-49.32899	898.18811	-755.57141	-52.37418	830.50500	-1205.35254	-121.34616	1508.07361	-1302.33276	-111.23454	1320.67761	-1328.96082	-139.53691	1178.00806	-1355.09412	-185.49393	1068.61206	-1345.00793	-253.39355	950.76355	-1376.59509	-207.64020	941.85895	-1383.97522	-254.66324	886.86749	-910.72943	-218.78131	993.07263	-1165.94348	-233.54129	985.77814	-1004.75385	-14.51130	1035.21277	-1120.03394	-17.49555	1038.86755	-843.15076	-199.58426	686.26245	-859.85638	-209.07895	497.91055	-881.81677	-81.42510	364.04227	-918.51563	14.09873	164.54744	-980.38660	41.42162	148.76019	-868.32898	-91.87665	64.00529	-1225.09570	-167.52211	673.27136	-1174.16199	-169.60867	464.21201	-1174.16260	-123.90118	280.15540	-1127.47021	-96.78470	91.12780	-1070.07605	-60.01150	39.06922	-1142.10327	-247.71361	36.42987	-1046.78882	-121.55092	1813.01624	-3357.54346	2845.79224	1034.18542																											 
108	1.070	-962.62994	-237.38911	1747.45520	-1104.58936	-228.39090	1727.51965	-945.20410	-106.19793	1674.93188	-1086.85205	-84.94058	1654.08276	-1020.90259	-47.18723	1529.89246	-1048.45447	-2.91251	1253.70081	-1008.30322	-189.01576	1464.98108	-1026.28137	-245.24380	1295.37463	-1099.05493	2.93360	1358.16760	-839.43677	-114.04567	1495.44482	-768.98785	-85.77024	1292.40051	-768.48657	-68.79256	1152.99609	-757.17560	-57.65405	1022.94220	-793.39154	-87.26396	887.61053	-754.68884	-46.90528	899.60321	-756.86139	-49.01694	831.38477	-1205.69080	-131.09442	1509.70007	-1303.42542	-123.35938	1322.42676	-1330.39648	-153.60477	1180.13074	-1356.25305	-201.42680	1071.53918	-1345.91736	-270.70587	954.83533	-1378.04980	-225.55646	945.15576	-1384.98938	-273.50372	890.92499	-913.07294	-228.34526	994.85785	-1167.53711	-240.48518	985.91095	-1004.33966	-23.26872	1036.42102	-1119.88745	-25.37619	1039.50598	-843.22253	-211.67270	688.41803	-860.65521	-224.05379	499.19617	-882.03345	-101.58057	359.42148	-919.01831	-14.83573	155.84567	-980.55609	11.83914	138.61880	-868.81274	-125.73751	60.90395	-1225.38745	-172.13268	672.96210	-1174.13232	-171.32460	463.92853	-1174.05908	-124.50407	280.28912	-1127.27771	-96.87012	91.25961	-1069.84143	-60.10309	39.20943	-1142.24890	-247.66800	36.45357	-1046.72412	-131.37665	1813.86475	-3357.42505	2845.72388	1034.05444																											 
109	1.080	-962.54156	-247.26147	1747.39172	-1104.17224	-238.06784	1727.94385	-945.67902	-115.47324	1675.56128	-1087.02075	-94.42245	1654.99133	-1021.94067	-56.31310	1530.57605	-1049.49927	-11.59797	1254.39294	-1008.47552	-197.88002	1465.53125	-1026.97192	-253.87158	1295.87732	-1100.74084	-6.03708	1359.16956	-840.16040	-121.64887	1495.47791	-769.88391	-90.09538	1293.09338	-769.66602	-70.92286	1153.96155	-758.05011	-57.63068	1024.25562	-794.00366	-85.43878	888.32471	-755.89038	-44.69507	900.88910	-757.94263	-46.24740	832.88507	-1206.08350	-140.85046	1511.05908	-1305.20752	-135.23630	1324.29834	-1332.04480	-167.43646	1182.20959	-1357.46423	-217.17175	1074.35608	-1346.60510	-288.12552	958.56689	-1379.34509	-243.42224	948.40424	-1385.90527	-292.24826	894.96155	-915.33337	-237.95357	996.35028	-1169.50696	-247.54521	985.60315	-1003.86108	-32.01406	1037.56226	-1119.56470	-33.23083	1040.02710	-843.40082	-223.75809	690.42352	-861.56787	-238.40536	500.27713	-882.41486	-121.59290	354.29361	-919.23846	-44.54327	146.85941	-980.68866	-18.65467	128.17415	-868.91290	-160.11322	57.89577	-1225.70483	-177.01791	672.50208	-1174.27612	-173.10776	463.75128	-1173.93091	-124.86323	280.49374	-1127.05139	-96.99646	91.19098	-1069.55518	-60.24276	39.22656	-1142.40051	-247.60960	36.41375	-1046.24170	-141.09924	1814.42627	-3355.54248	2846.69946	1034.24561																											 
110	1.090	-961.43353	-255.74051	1746.99268	-1103.67725	-247.70184	1728.26355	-945.18848	-124.56792	1675.43652	-1087.11145	-103.66833	1655.45361	-1022.53345	-65.11211	1530.86963	-1050.28247	-20.28620	1254.78601	-1008.72113	-206.75890	1465.86218	-1027.74011	-262.52390	1296.30103	-1102.44019	-15.11621	1359.59790	-840.73358	-129.44464	1495.28760	-770.62299	-94.53896	1293.84473	-770.96936	-73.20090	1154.78516	-759.11023	-57.70279	1025.13855	-794.39233	-84.10993	889.16284	-756.89905	-42.93044	902.03693	-758.74615	-44.10425	834.08392	-1206.23364	-150.61896	1512.11682	-1305.77515	-147.08585	1325.62952	-1333.52307	-181.16548	1184.09229	-1358.67126	-232.70551	1077.02100	-1347.23730	-305.28201	962.30426	-1380.39771	-261.10062	951.48425	-1386.64331	-310.98529	898.79620	-917.51178	-247.67146	997.51794	-1171.09888	-254.80373	985.42017	-1003.09656	-40.87440	1038.45496	-1118.93005	-41.15057	1040.36804	-843.43817	-235.63419	692.27075	-862.64014	-252.25204	500.95892	-882.64032	-142.36214	348.82184	-918.94537	-75.08735	137.80798	-980.50085	-50.22816	117.44449	-868.53809	-195.14302	55.09175	-1225.63440	-181.60378	672.16663	-1174.24866	-174.92319	463.51617	-1173.82666	-125.27174	280.70709	-1126.41052	-96.96822	91.08521	-1068.96240	-60.52810	39.39469	-1142.51660	-247.55453	36.39634	-1045.65979	-150.83398	1814.66638																														 
111	1.100	-960.57294	-264.79584	1747.11646	-1103.12500	-257.32584	1728.41272	-945.16071	-133.34172	1675.79639	-1087.07166	-113.07198	1656.15784	-1023.38635	-74.10159	1531.36487	-1051.02734	-28.89138	1255.23828	-1008.92102	-214.93259	1465.92505	-1028.47827	-271.68643	1296.62292	-1104.00061	-24.12928	1360.56897	-841.43048	-136.96109	1495.06433	-771.65997	-98.58961	1294.21082	-771.70435	-75.41273	1155.64026	-760.22754	-57.60360	1026.29150	-794.54773	-83.10533	889.94446	-758.00061	-41.24016	903.31152	-759.78967	-41.80261	835.33337	-1206.57202	-160.26053	1513.16248	-1307.07007	-158.73642	1326.98816	-1334.96802	-194.70612	1185.81628	-1359.79797	-248.02649	1079.43237	-1347.77429	-322.28976	966.00378	-1381.53906	-278.48373	954.61169	-1387.24939	-329.48886	902.69971	-919.42773	-257.36264	998.34070	-1172.78369	-262.07574	984.77643	-1002.51947	-49.53518	1039.42871	-1118.41577	-48.77446	1040.74011	-843.61743	-246.55635	693.64459	-863.49414	-265.36050	501.38580	-883.10657	-162.37721	343.14078	-918.67828	-106.24651	128.74146	-980.14252	-81.91709	107.30331	-868.20020	-229.95340	52.32088	-1225.59277	-185.84543	671.96155	-1174.47180	-177.01527	463.52316	-1173.73291	-125.95745	280.86340	-1126.65894	-97.13875	91.69324	-1068.88867	-60.39067	39.54690	-1142.64551	-247.60074	36.42419	-1045.31641	-160.58665	1815.22046	-3356.91211	2845.95703	1033.72839																											 
112	1.110	-960.56006	-274.84384	1746.74414	-1102.60181	-266.95184	1728.31152	-945.05945	-142.31276	1675.85583	-1087.07666	-122.10500	1656.40771	-1023.81622	-82.78056	1531.46875	-1051.58533	-37.50140	1255.45190	-1009.04797	-223.74046	1465.99963	-1029.20520	-279.83945	1296.50061	-1105.26868	-33.08333	1361.02026	-842.05072	-144.71465	1494.53918	-772.60681	-103.23602	1294.71045	-772.67859	-78.08213	1156.39905	-761.09955	-58.02020	1027.35303	-794.66840	-82.03833	890.42285	-758.97229	-40.32827	904.56244	-760.45135	-40.03272	836.54858	-1206.70435	-169.85825	1513.92603	-1307.75916	-170.30261	1328.03992	-1336.28064	-208.10146	1187.38647	-1360.60718	-263.11172	1081.77466	-1348.17102	-339.23227	969.64307	-1382.21973	-296.04831	957.47064	-1387.63989	-347.81964	906.56097	-921.08960	-267.05789	998.79449	-1174.39722	-269.29407	983.95239	-1001.77051	-58.26979	1040.06787	-1117.69507	-56.51514	1040.88989	-843.78467	-257.62662	694.99072	-864.74042	-278.17514	501.47232	-883.32373	-182.38437	337.35422	-917.89581	-137.33496	120.06555	-979.78168	-114.36851	97.52629	-867.49225	-265.09412	50.05102	-1225.16931	-189.80002	671.78094	-1174.19214	-179.11533	463.03922	-1173.55359	-126.97073	280.96588	-1126.28357	-97.24371	91.69924	-1068.34021	-60.66206	39.51432	-1142.79016	-247.36635	36.28286	-1044.67285	-170.41023	1815.18616																														 
